# xmcd CD database file
#
# Track frame offsets:
#	150
#	15512
#	27320
#	45715
#	58495
#	70377
#	86442
#	99805
#	118985
#	136782
#	154837
#	164447
#	188002
#	208832
#	225175
#	239790
#	250040
#	264915
#
# Disc length: 3780 seconds
#
# Revision: 3
# Processed by: cddbd v1.5PL3 Copyright (c) Steve Scherf et al.
# Submitted via: CDex 1.50
#
DISCID=f10ec212
DTITLE=アンデス音楽 - 遙かなるインカ 〜 アンデスの音楽 〜
DYEAR=1900
DGENRE=Soundtrack
TTITLE0=コンドルは飛んでゆく
TTITLE1=ラサ・ブラバ
TTITLE2=太陽の乙女たち
TTITLE3=バリーチャ
TTITLE4=コリ・カナスティータ
TTITLE5=チチカカのそよ風
TTITLE6=花祭り
TTITLE7=アウキ・アウキ
TTITLE8=私の不運よ…
TTITLE9=パスクアのための小歌
TTITLE10=水辺の花
TTITLE11=猿
TTITLE12=聖者たち
TTITLE13=チョコルル
TTITLE14=コージャ族のお祭り
TTITLE15=コルティ・ポンチョ
TTITLE16=夢
TTITLE17=ワカ・ワカの踊り
EXTD=
EXTT0=
EXTT1=
EXTT2=
EXTT3=
EXTT4=
EXTT5=
EXTT6=
EXTT7=
EXTT8=
EXTT9=
EXTT10=
EXTT11=
EXTT12=
EXTT13=
EXTT14=
EXTT15=
EXTT16=
EXTT17=
PLAYORDER=
